<svg xmlns="http://www.w3.org/2000/svg" width="34" height="31" viewBox="0 0 34 31" fill="none">
  <path d="M2.00116 14C2 14.4767 2 14.9762 2 15.5C2 21.1245 2 23.9369 3.43236 25.9083C3.89497 26.5451 4.4549 27.105 5.09161 27.5676C7.0631 29 9.8754 29 15.5 29H18.5C24.1245 29 26.9369 29 28.9083 27.5676C29.5451 27.105 30.105 26.5451 30.5676 25.9083C32 23.9369 32 21.1245 32 15.5C32 9.8754 32 7.0631 30.5676 5.09161C30.105 4.4549 29.5451 3.89497 28.9083 3.43236C26.9369 2 24.1245 2 18.5 2H15.5C9.8754 2 7.0631 2 5.09161 3.43236C4.4549 3.89497 3.89497 4.4549 3.43236 5.09161C2.85735 5.88305 2.51318 6.81001 2.30717 8" stroke="#19669D" stroke-width="3" stroke-linecap="round"/>
  <path d="M17.9231 19C17.9231 18.0681 17.9231 17.6022 18.0753 17.2346C18.2783 16.7446 18.6677 16.3552 19.1577 16.1522C19.5253 16 19.9912 16 20.9231 16H21.9231C22.855 16 23.3209 16 23.6885 16.1522C24.1785 16.3552 24.5679 16.7446 24.7709 17.2346C24.9231 17.6022 24.9231 18.0681 24.9231 19C24.9231 19.9319 24.9231 20.3978 24.7709 20.7654C24.5679 21.2554 24.1785 21.6448 23.6885 21.8478C23.3209 22 22.855 22 21.9231 22H20.9231C19.9912 22 19.5253 22 19.1577 21.8478C18.6677 21.6448 18.2783 21.2554 18.0753 20.7654C17.9231 20.3978 17.9231 19.9319 17.9231 19Z" stroke="#19669D" stroke-width="3"/>
</svg>