<svg width="32" height="29" viewBox="0 0 32 29" fill="none" xmlns="http://www.w3.org/2000/svg">
<path d="M1.00116 13C1 13.4767 1 13.9762 1 14.5C1 20.1245 1 22.9369 2.43236 24.9083C2.89497 25.5451 3.4549 26.105 4.09161 26.5676C6.0631 28 8.8754 28 14.5 28H17.5C23.1245 28 25.9369 28 27.9083 26.5676C28.5451 26.105 29.105 25.5451 29.5676 24.9083C31 22.9369 31 20.1245 31 14.5C31 8.8754 31 6.0631 29.5676 4.09161C29.105 3.4549 28.5451 2.89497 27.9083 2.43236C25.9369 1 23.1245 1 17.5 1H14.5C8.8754 1 6.0631 1 4.09161 2.43236C3.4549 2.89497 2.89497 3.4549 2.43236 4.09161C1.85735 4.88305 1.51318 5.81001 1.30717 7" stroke="#1C274C" stroke-width="2" stroke-linecap="round"/>
<path d="M16.9231 18C16.9231 17.0681 16.9231 16.6022 17.0753 16.2346C17.2783 15.7446 17.6677 15.3552 18.1577 15.1522C18.5253 15 18.9912 15 19.9231 15H20.9231C21.855 15 22.3209 15 22.6885 15.1522C23.1785 15.3552 23.5679 15.7446 23.7709 16.2346C23.9231 16.6022 23.9231 17.0681 23.9231 18C23.9231 18.9319 23.9231 19.3978 23.7709 19.7654C23.5679 20.2554 23.1785 20.6448 22.6885 20.8478C22.3209 21 21.855 21 20.9231 21H19.9231C18.9912 21 18.5253 21 18.1577 20.8478C17.6677 20.6448 17.2783 20.2554 17.0753 19.7654C16.9231 19.3978 16.9231 18.9319 16.9231 18Z" stroke="#1C274C" stroke-width="2"/>
</svg>
