<svg xmlns="http://www.w3.org/2000/svg" width="38" height="31" viewBox="0 0 38 31" fill="none">
  <path d="M35.9464 15.5C35.9464 9.13603 35.9464 5.95407 33.9693 3.97702C31.9924 2 28.8103 2 22.4464 2H15.6964C9.33244 2 6.15048 2 4.17344 3.97702C2.19641 5.95407 2.19641 9.13603 2.19641 15.5C2.19641 21.8639 2.19641 25.046 4.17344 27.0229C6.15048 29 9.33244 29 15.6964 29H22.4464C28.8103 29 31.9924 29 33.9693 27.0229C35.0716 25.9207 35.5593 24.4439 35.7751 22.25" stroke="#19669D" stroke-width="3" stroke-linecap="round"/>
  <path d="M16.425 22.25H8.70361" stroke="#19669D" stroke-width="3" stroke-linecap="round"/>
  <path d="M22.6039 22.25H19.7084" stroke="#19669D" stroke-width="3" stroke-linecap="round"/>
  <path d="M2.19641 12.125H10.6339M35.9464 12.125H17.3839" stroke="#19669D" stroke-width="3" stroke-linecap="round"/>
</svg>