<svg width="36" height="29" viewBox="0 0 36 29" fill="none" xmlns="http://www.w3.org/2000/svg">
<path d="M34.9464 14.5C34.9464 8.13603 34.9464 4.95407 32.9693 2.97702C30.9924 1 27.8103 1 21.4464 1H14.6964C8.33244 1 5.15048 1 3.17344 2.97702C1.19641 4.95407 1.19641 8.13603 1.19641 14.5C1.19641 20.8639 1.19641 24.046 3.17344 26.0229C5.15048 28 8.33244 28 14.6964 28H21.4464C27.8103 28 30.9924 28 32.9693 26.0229C34.0716 24.9207 34.5593 23.4439 34.7751 21.25" stroke="#1C274C" stroke-width="2" stroke-linecap="round"/>
<path d="M15.425 21.25H7.70361" stroke="#1C274C" stroke-width="2" stroke-linecap="round"/>
<path d="M21.6039 21.25H18.7084" stroke="#1C274C" stroke-width="2" stroke-linecap="round"/>
<path d="M1.19641 11.125H9.63391M34.9464 11.125H16.3839" stroke="#1C274C" stroke-width="2" stroke-linecap="round"/>
</svg>
