<svg xmlns="http://www.w3.org/2000/svg" width="24" height="24" viewBox="0 0 24 24" fill="none">
  <path d="M8.99731 11.5215C8.99731 9.97156 10.2539 8.71502 11.8038 8.71502C13.3537 8.71502 14.6102 9.97156 14.6102 11.5215C14.6102 13.0714 13.3537 14.3279 11.8038 14.3279C10.2539 14.3279 8.99731 13.0714 8.99731 11.5215Z" fill="black"/>
  <mask id="path-2-outside-1_373_582" maskUnits="userSpaceOnUse" x="2.99854" y="-0.298796" width="18.2573" height="23.7015" fill="black">
    <rect fill="white" x="2.99854" y="-0.298796" width="18.2573" height="23.7015"/>
    <path d="M2.99854 22.2135L19.3448 0.11096L20.1488 0.705577L3.80254 22.8081L2.99854 22.2135Z"/>
  </mask>
  <path d="M2.99854 22.2135L19.3448 0.11096L20.1488 0.705577L3.80254 22.8081L2.99854 22.2135Z" fill="black"/>
  <path d="M19.3448 0.11096L2.99854 22.2135L4.60655 23.4027L20.9528 1.30019L19.3448 0.11096Z" fill="#F4F4F4" mask="url(#path-2-outside-1_373_582)"/>
  <path fill-rule="evenodd" clip-rule="evenodd" d="M0.553711 11.5215C0.553711 13.3658 1.03179 13.9869 1.98796 15.2291C3.89717 17.7094 7.09908 20.5215 11.8037 20.5215C16.5083 20.5215 19.7102 17.7094 21.6194 15.2291C22.5756 13.9869 23.0537 13.3658 23.0537 11.5215C23.0537 9.67715 22.5756 9.05607 21.6194 7.81385C19.7102 5.33348 16.5083 2.52148 11.8037 2.52148C7.09908 2.52148 3.89717 5.33348 1.98796 7.81385C1.03179 9.05607 0.553711 9.67715 0.553711 11.5215ZM11.8037 7.30273C9.47376 7.30273 7.58496 9.19152 7.58496 11.5215C7.58496 13.8515 9.47376 15.7402 11.8037 15.7402C14.1337 15.7402 16.0225 13.8515 16.0225 11.5215C16.0225 9.19152 14.1337 7.30273 11.8037 7.30273Z" fill="black"/>
</svg>