<svg xmlns="http://www.w3.org/2000/svg" width="24" height="19" viewBox="0 0 24 19" fill="none">
  <path d="M8.99731 9.52148C8.99731 7.97157 10.2539 6.71503 11.8038 6.71503C13.3537 6.71503 14.6102 7.97157 14.6102 9.52148C14.6102 11.0714 13.3537 12.3279 11.8038 12.3279C10.2539 12.3279 8.99731 11.0714 8.99731 9.52148Z" fill="black"/>
  <path fill-rule="evenodd" clip-rule="evenodd" d="M0.553711 9.52149C0.553711 11.3658 1.03179 11.9869 1.98796 13.2291C3.89717 15.7094 7.09908 18.5215 11.8037 18.5215C16.5083 18.5215 19.7102 15.7094 21.6194 13.2291C22.5756 11.9869 23.0537 11.3658 23.0537 9.52149C23.0537 7.67716 22.5756 7.05608 21.6194 5.81386C19.7102 3.33349 16.5083 0.521484 11.8037 0.521484C7.09908 0.521484 3.89717 3.33349 1.98796 5.81386C1.03179 7.05608 0.553711 7.67716 0.553711 9.52149ZM11.8037 5.30273C9.47376 5.30273 7.58496 7.19153 7.58496 9.52149C7.58496 11.8515 9.47376 13.7402 11.8037 13.7402C14.1337 13.7402 16.0225 11.8515 16.0225 9.52149C16.0225 7.19153 14.1337 5.30273 11.8037 5.30273Z" fill="black"/>
</svg>