<svg xmlns="http://www.w3.org/2000/svg" width="23" height="23" viewBox="0 0 23 23" fill="none">
  <path d="M14.8219 11.5017H1.8219M1.8219 11.5017L5.3219 8.50171M1.8219 11.5017L5.3219 14.5017" stroke="#1C274C" stroke-width="2" stroke-linecap="round" stroke-linejoin="round"/>
  <path d="M8.82385 6.50171C8.83596 4.32668 8.93241 3.14877 9.70079 2.38039C10.5795 1.50171 11.9937 1.50171 14.8221 1.50171H15.8221C18.6505 1.50171 20.0648 1.50171 20.9434 2.38039C21.8221 3.25907 21.8221 4.67328 21.8221 7.50171V15.5017C21.8221 18.3301 21.8221 19.7443 20.9434 20.623C20.175 21.3914 18.9971 21.4879 16.8219 21.5M8.82385 16.5017C8.83596 18.6767 8.93241 19.8546 9.70079 20.623C10.3421 21.2643 11.2686 21.4376 12.8219 21.4844" stroke="#1C274C" stroke-width="2" stroke-linecap="round"/>
</svg>